# xmcd
#
# Track frame offsets: 
#        150
#        19298
#        38316
#        60161
#        75880
#        92408
#        111823
#        128675
#        149829
#        164484
#        178312
#        201472
#        220796
#        237861
#        250878
#        271694
#        290325
#        306446
#
# Disc length: 4347 seconds
#
# Revision: 2
# Processed by: cddbd v1.5.2PL0 Copyright (c) Steve Scherf et al.
# Submitted via: ExactAudioCopyFreeDBPlugin 1.0
#
DISCID=f710f912
DTITLE=DJ Vadim - U Can't Lurn Imaginashun
DYEAR=2009
DGENRE=Hip-Hop
TTITLE0=Soldier (feat. Big Red and 5nizza)
TTITLE1=R3 Imaginashun
TTITLE2=That Life (feat. Juice Lee and Rjay)
TTITLE3=Thrill Seeker (feat. Sabira Jade)
TTITLE4=Beijos (feat. Heidi Vogel)
TTITLE5=Saturday (feat. Pugz Atomz)
TTITLE6=Strictly Rockers 215
TTITLE7=Under Your Hat (feat. Kathrin Deboer and Governor Tiggy)
TTITLE8=Game Tight
TTITLE9=You Are Yours (feat. Yarah Bravo)
TTITLE10=Maximum (feat. La Methode)
TTITLE11=I Want You Shout Out (feat. Sabira Jade)
TTITLE12=Always Lady (feat. Pugs Atomz and Wes Testless)
TTITLE13=Pink Stiletos (feat. Sunny)
TTITLE14=Thrill 103
TTITLE15=Rock Dem Hot
TTITLE16=Hidden Treasure (feat. Sabira Jade and Kwasi Asante)
TTITLE17=Tu He Ma Ne Toddy
EXTD=
EXTT0=
EXTT1=
EXTT2=
EXTT3=
EXTT4=
EXTT5=
EXTT6=
EXTT7=
EXTT8=
EXTT9=
EXTT10=
EXTT11=
EXTT12=
EXTT13=
EXTT14=
EXTT15=
EXTT16=
EXTT17=
PLAYORDER=
